PathFileType	4	(X/Y/Z)	 s06c0103.trc
DataRate	CameraRate	NumFrames	NumMarkers	Units	OrigDataRate	OrigDataStartFrame	OrigNumFrames
200	200	4	48	mm	200	251	2000
Frame#	Time	racr			lacr			c7			jug			rlel			rdr			llel			ldr			s2			lic			ric			lasi			rasi			rpsi			lpsi			rgt			lgt			rth1			rth2			rth3			rth4			rlfc			rmfc			rsh1			rsh2			rsh3			rsh4			rlmal			rcal			rtoe			rmt5			lth1			lth2			lth4			lth3			llfc			lmfc			llmal			lcal			lmt5			lsh1			lsh2			lsh3			lsh4			ltoe			SBIKE			LBIKE			RBIKE			
		X1	Y1	Z1	X2	Y2	Z2	X3	Y3	Z3	X4	Y4	Z4	X5	Y5	Z5	X6	Y6	Z6	X7	Y7	Z7	X8	Y8	Z8	X9	Y9	Z9	X10	Y10	Z10	X11	Y11	Z11	X12	Y12	Z12	X13	Y13	Z13	X14	Y14	Z14	X15	Y15	Z15	X16	Y16	Z16	X17	Y17	Z17	X18	Y18	Z18	X19	Y19	Z19	X20	Y20	Z20	X21	Y21	Z21	X22	Y22	Z22	X23	Y23	Z23	X24	Y24	Z24	X25	Y25	Z25	X26	Y26	Z26	X27	Y27	Z27	X28	Y28	Z28	X29	Y29	Z29	X30	Y30	Z30	X31	Y31	Z31	X32	Y32	Z32	X33	Y33	Z33	X34	Y34	Z34	X35	Y35	Z35	X36	Y36	Z36	X37	Y37	Z37	X38	Y38	Z38	X39	Y39	Z39	X40	Y40	Z40	X41	Y41	Z41	X42	Y42	Z42	X43	Y43	Z43	X44	Y44	Z44	X45	Y45	Z45	X46	Y46	Z46	X47	Y47	Z47	X48	Y48	Z48	
251	1.2550	474.846062	1340.742121	-44.229832	493.324668	1346.143279	-362.140220	448.576420	1440.300670	-201.845355	497.112182	1291.186342	-200.244025	514.064226	1082.013501	52.303267	710.636154	934.956330	-32.357441	526.751226	1091.097034	-467.602956	714.718083	926.346130	-408.240283	-30.610152	1172.993718	-207.005380	136.461722	1128.329865	-375.864404	136.537059	1118.207910	-43.784459	141.899401	1064.297323	-348.499024	148.610420	1064.446743	-79.157741	5.815261	1205.469504	-173.586500	4.316621	1206.423305	-234.117970	100.085037	1073.473410	-13.147097	86.552419	1070.173280	-411.853787	190.977012	989.413446	-16.178155	270.162624	946.177965	-25.113996	316.349755	872.336932	-31.276176	290.898495	972.313013	-43.895803	370.374247	780.928183	-51.806597	360.701959	754.211131	-162.513695	349.715378	659.957534	-25.106628	353.012684	573.661422	-42.833061	315.235877	495.309972	-44.037288	374.040608	573.085680	-77.576015	287.813096	416.121397	-48.412252	222.467043	396.719328	-94.263100	491.218704	325.868337	-97.412795	392.727671	327.060752	-26.688823	137.218952	961.088557	-422.226989	208.069225	910.567537	-416.893299	235.230600	932.826999	-404.803298	245.087517	829.439562	-414.839483	272.937112	718.425043	-389.545983	271.574500	703.781718	-273.287251	11.996129	453.434389	-372.345083	-62.702258	469.354478	-322.342502	70.673666	324.486835	-393.994570	206.931629	632.938142	-409.538582	161.724000	562.776142	-385.477695	85.088519	517.284241	-383.125259	180.482341	550.472521	-352.536005	145.284120	279.287371	-338.086306	-203.708734	867.569852	-201.232617	-51.951670	84.252739	-410.165413	-50.351097	80.125761	-12.638635	
252	1.2600	476.050176	1340.842971	-44.401591	494.215361	1346.053330	-362.144544	449.841663	1440.198184	-202.029723	498.372198	1291.167953	-200.438919	514.216412	1082.090669	52.586549	710.738920	935.078888	-32.341561	526.864549	1091.044848	-467.704081	714.816552	926.258996	-408.325546	-29.537767	1173.540162	-207.308593	137.270784	1128.933480	-375.918005	137.823262	1118.223104	-44.340046	142.701933	1065.087818	-348.679326	149.828337	1064.565438	-79.893264	7.080371	1205.923863	-173.672338	5.274034	1207.147159	-234.233407	101.615312	1073.320109	-13.631444	87.318031	1071.013634	-411.950053	192.030441	988.695512	-16.541118	270.824586	944.691036	-25.619261	316.305040	870.543431	-32.093602	291.737446	970.772179	-44.488528	369.639785	778.598391	-52.470340	359.697093	752.025253	-162.992834	349.249754	657.816809	-25.420746	352.659919	571.563357	-43.165703	315.083979	493.096437	-44.369285	373.499028	571.019246	-77.806239	287.611082	414.029911	-48.668775	222.227549	394.796536	-94.091313	491.159702	323.969239	-97.423794	392.603987	325.123930	-26.741780	137.964698	962.363773	-422.449415	208.864603	911.942774	-417.129347	235.982995	934.188698	-404.801760	245.974224	830.761218	-415.535674	273.799610	719.712798	-390.901048	272.880406	705.093639	-274.535965	12.369506	455.403548	-372.554925	-62.253206	471.539435	-322.418299	70.794696	326.281643	-394.062698	207.675549	634.226601	-410.622145	162.265542	564.342917	-386.217516	85.503284	519.184416	-383.628855	181.169267	552.051817	-353.556611	145.347016	280.951554	-338.157418	-203.660190	867.591966	-201.227143	-51.941785	84.266908	-410.189735	-50.419460	80.371345	-12.441338	
253	1.2650	477.228476	1340.991389	-44.702954	495.073220	1345.942311	-362.277884	451.088197	1440.099286	-202.342979	499.505170	1291.139564	-200.620259	514.717882	1082.168162	52.592179	710.939170	935.062696	-32.426683	527.055042	1091.060427	-467.794212	714.912279	926.176407	-408.418459	-28.553220	1174.396688	-207.073217	138.076183	1129.497090	-376.047615	139.006447	1118.363606	-44.736765	143.456017	1065.717684	-348.761431	151.095732	1064.889447	-80.537068	8.100519	1206.428624	-173.636415	6.194157	1207.639281	-234.229516	102.981253	1073.120926	-14.060768	88.061533	1071.819085	-412.031366	192.983912	987.692367	-16.966088	271.475814	943.133924	-26.249786	315.964696	868.316966	-33.106741	292.556438	969.040612	-44.991029	368.962617	776.319987	-52.971063	358.694724	749.671303	-163.363007	348.679618	655.574614	-25.757219	352.249820	569.382880	-43.517827	314.812666	490.778357	-44.627505	373.073522	568.849389	-78.154128	287.399880	411.997296	-48.875098	222.011508	392.786819	-93.942964	491.104543	322.008168	-97.435512	392.509061	323.190095	-26.822956	138.867441	963.652476	-422.701868	209.790659	913.327411	-417.373067	236.761727	935.562223	-404.923507	247.072981	832.303549	-416.174616	274.839553	721.117561	-392.245949	274.196415	706.369767	-275.837440	12.818948	457.468984	-372.769729	-61.700746	473.805818	-322.540825	70.951264	328.118204	-394.102265	208.498623	635.791580	-411.670807	162.944928	565.978936	-387.116500	86.079776	521.006980	-384.200189	181.853289	553.535193	-354.423467	145.412444	282.626073	-338.205153	-203.631026	867.587956	-201.266299	-51.941013	84.265855	-410.185693	-50.406897	80.384822	-12.433906	
254	1.2700	478.412620	1341.227702	-45.017869	495.915604	1345.782271	-362.528579	452.234056	1440.035699	-202.648094	500.613058	1291.090034	-200.785449	515.542040	1082.250468	52.417872	711.225546	934.989383	-32.571261	527.328420	1091.099712	-467.886570	715.019144	926.091129	-408.514556	-27.478302	1174.819328	-207.184721	138.998808	1130.010711	-376.139784	140.300472	1118.301371	-45.499036	144.344094	1066.293908	-348.832004	152.126268	1064.895030	-81.488083	9.349348	1206.896585	-173.474116	7.152030	1208.058873	-234.245909	104.218256	1072.716300	-14.503565	88.783478	1072.485337	-412.129413	193.956250	986.654804	-17.304971	272.145309	941.614953	-26.542675	316.114418	866.310553	-33.466144	293.347330	967.264598	-45.343532	368.159314	773.931947	-53.552613	357.755083	747.221030	-163.673793	348.089043	653.255341	-26.013834	351.869979	567.096579	-43.820776	314.518600	488.377463	-44.920920	372.563915	566.570600	-78.502303	287.245921	409.895313	-49.067426	221.917810	390.711189	-93.899916	491.045576	319.961375	-97.433215	392.425308	321.166458	-26.836285	139.847634	964.953822	-422.973726	210.864722	914.763350	-417.655363	237.861375	936.927266	-405.067659	248.338629	833.672284	-416.652804	276.001656	722.500866	-393.584703	275.403302	707.157962	-277.249283	13.342418	459.579866	-373.029502	-61.027629	476.172844	-322.578177	71.142540	329.976038	-394.146812	209.414398	637.267580	-412.705356	163.686356	567.699640	-387.955130	86.720097	522.929396	-384.791039	182.708526	555.035260	-355.300800	145.487943	284.319183	-338.284762	-203.578388	867.603413	-201.260911	-51.913821	84.298199	-410.196458	-50.315057	80.116435	-12.651807	
